<svg width="64" height="64" viewBox="0 0 64 64" fill="none" xmlns="http://www.w3.org/2000/svg">
<path d="M14.6667 33H25.5C26.3399 33 27.1453 32.6664 27.7392 32.0725C28.333 31.4786 28.6667 30.6732 28.6667 29.8333V14.6667C28.6667 13.8268 28.333 13.0214 27.7392 12.4275C27.1453 11.8336 26.3399 11.5 25.5 11.5H14.6667C13.8268 11.5 13.0214 11.8336 12.4275 12.4275C11.8336 13.0214 11.5 13.8268 11.5 14.6667V29.8333C11.5 30.6732 11.8336 31.4786 12.4275 32.0725C13.0214 32.6664 13.8268 33 14.6667 33ZM52.5 21.1667V14.6667C52.5 13.8268 52.1664 13.0214 51.5725 12.4275C50.9786 11.8336 50.1732 11.5 49.3333 11.5H38.5C37.6601 11.5 36.8547 11.8336 36.2608 12.4275C35.667 13.0214 35.3333 13.8268 35.3333 14.6667V21.1667C35.3333 22.0065 35.667 22.812 36.2608 23.4058C36.8547 23.9997 37.6601 24.3333 38.5 24.3333H49.3333C50.1732 24.3333 50.9786 23.9997 51.5725 23.4058C52.1664 22.812 52.5 22.0065 52.5 21.1667ZM28.6667 49.3333V42.8333C28.6667 41.9935 28.333 41.188 27.7392 40.5942C27.1453 40.0003 26.3399 39.6667 25.5 39.6667H14.6667C13.8268 39.6667 13.0214 40.0003 12.4275 40.5942C11.8336 41.188 11.5 41.9935 11.5 42.8333V49.3333C11.5 50.1732 11.8336 50.9786 12.4275 51.5725C13.0214 52.1664 13.8268 52.5 14.6667 52.5H25.5C26.3399 52.5 27.1453 52.1664 27.7392 51.5725C28.333 50.9786 28.6667 50.1732 28.6667 49.3333ZM52.5 49.3333V34.1667C52.5 33.3268 52.1664 32.5214 51.5725 31.9275C50.9786 31.3336 50.1732 31 49.3333 31H38.5C37.6601 31 36.8547 31.3336 36.2608 31.9275C35.667 32.5214 35.3333 33.3268 35.3333 34.1667V49.3333C35.3333 50.1732 35.667 50.9786 36.2608 51.5725C36.8547 52.1664 37.6602 52.5 38.5 52.5H49.3333C50.1732 52.5 50.9786 52.1664 51.5725 51.5725C52.1664 50.9786 52.5 50.1732 52.5 49.3333Z" fill="white" stroke="white" stroke-width="2"/>
</svg>
