<svg width="294" height="148" viewBox="0 0 294 148" fill="none" xmlns="http://www.w3.org/2000/svg">
<g clip-path="url(#clip0_8_130)">
<path d="M146.693 29.0675C146.693 29.0675 195.043 -18.2521 195.043 8.39182C195.043 35.0358 173.396 56.635 146.693 56.635C119.99 56.635 98.3431 35.0358 98.3431 8.39183C98.3431 -18.2521 146.693 29.0675 146.693 29.0675Z" fill="#303030"/>
<path d="M278.525 1.14982e-05C287.517 1.14982e-05 294.9 7.31154 293.911 16.2495C292.381 30.0816 288.902 43.6559 283.556 56.5633C276.128 74.496 265.24 90.7901 251.515 104.515C237.79 118.24 221.496 129.128 203.563 136.556C185.63 143.984 166.41 147.807 147 147.807C127.59 147.807 108.369 143.984 90.4367 136.556C72.504 129.128 56.2099 118.24 42.4847 104.515C28.7596 90.7901 17.8722 74.496 10.4442 56.5633C5.09782 43.6559 1.61895 30.0816 0.0890088 16.2495C-0.899602 7.31153 6.48292 -7.86145e-07 15.4754 0C24.4678 7.86146e-07 31.6397 7.32545 32.906 16.2283C34.2648 25.7812 36.821 35.1471 40.5299 44.1013C46.3214 58.0832 54.8101 70.7874 65.5114 81.4886C76.2126 92.1899 88.9168 100.679 102.899 106.47C116.881 112.262 131.866 115.242 147 115.242C162.134 115.242 177.119 112.262 191.101 106.47C205.083 100.679 217.787 92.1899 228.489 81.4887C239.19 70.7874 247.679 58.0832 253.47 44.1013C257.179 35.1471 259.735 25.7812 261.094 16.2283C262.36 7.32546 269.532 1.14982e-05 278.525 1.14982e-05Z" fill="#303030"/>
</g>
<defs>
<clipPath id="clip0_8_130">
<rect width="294" height="148" fill="white"/>
</clipPath>
</defs>
</svg>
