<svg width="294" height="164" viewBox="0 0 294 164" fill="none" xmlns="http://www.w3.org/2000/svg">
<g clip-path="url(#clip0_7_106)">
<path d="M0 18.3239C-1.68764e-06 37.5857 3.80226 55.6589 11.1897 73.4544C18.5771 91.25 29.4051 107.419 43.0553 121.04L67.5121 96.6366C57.0736 86.2211 48.7934 73.8561 43.1441 60.2477C37.4948 46.6392 34.5872 32.0537 34.5872 17.3239L0 18.3239Z" fill="#B7D9FF"/>
<path d="M43.0553 121.04C56.7055 134.66 72.9107 145.464 90.7455 152.835C108.58 160.206 127.696 164 147 164V129.489C132.238 129.489 117.62 126.588 103.981 120.951C90.3429 115.314 77.9506 107.052 67.5121 96.6366L43.0553 121.04Z" fill="#4BA6FF"/>
<path d="M147 164C166.304 164 185.42 160.206 203.254 152.835C221.089 145.464 237.294 134.66 250.945 121.04L226.488 96.6366C216.049 107.052 203.657 115.314 190.019 120.951C176.38 126.588 161.762 129.489 147 129.489V164Z" fill="#096DFF"/>
<path d="M250.945 121.04C264.595 107.419 275.423 91.25 282.81 73.4544C290.198 55.6589 294 37.5857 294 18.324L259.413 17.324C259.413 32.0537 256.505 46.6392 250.856 60.2477C245.207 73.8562 236.926 86.2211 226.488 96.6366L250.945 121.04Z" fill="#0328DB"/>
<path d="M147.579 49.662C147.579 49.662 200.244 -1.88133 200.244 27.1408C200.244 56.163 176.665 79.6901 147.579 79.6901C118.492 79.6901 94.9133 56.163 94.9133 27.1408C94.9133 -1.88133 147.579 49.662 147.579 49.662Z" fill="#3E74FF"/>
<path d="M34.5842 18.3239C34.5842 13.7293 32.8951 9.32293 29.6391 6.07406C26.3831 2.8252 21.9669 1 17.3622 1C12.7574 1 8.34128 2.82519 5.08523 6.07406C1.82919 9.32293 6.95297e-07 13.7293 0 18.3239L34.5842 18.3239Z" fill="#B7D9FF"/>
<path d="M294 18.324C294 13.7294 292.171 9.32293 288.915 6.07406C285.659 2.8252 281.242 1 276.638 1C272.033 1 267.617 2.82519 264.361 6.07406C261.105 9.32293 259.407 13.7293 259.407 18.3239L294 18.324Z" fill="#0328DB"/>
</g>
<defs>
<clipPath id="clip0_7_106">
<rect width="294" height="164" fill="white"/>
</clipPath>
</defs>
</svg>
