<svg width="512" height="512" viewBox="0 0 512 512" fill="none" xmlns="http://www.w3.org/2000/svg">
<rect width="512" height="512" fill="white"/>
<path d="M255.786 207.662C255.786 207.662 308.452 156.119 308.452 185.141C308.452 214.163 284.873 237.69 255.786 237.69C226.7 237.69 203.121 214.163 203.121 185.141C203.121 156.119 255.786 207.662 255.786 207.662Z" fill="#303030"/>
<path d="M399.385 176C409.181 176 417.222 183.964 416.145 193.7C414.479 208.767 410.689 223.553 404.866 237.612C396.775 257.145 384.916 274.894 369.965 289.844C355.015 304.794 337.267 316.654 317.733 324.745C298.2 332.836 277.264 337 256.121 337C234.978 337 214.042 332.836 194.509 324.745C174.976 316.654 157.227 304.794 142.277 289.844C127.327 274.894 115.467 257.145 107.376 237.612C101.553 223.553 97.7635 208.767 96.097 193.7C95.0201 183.964 103.062 176 112.857 176C122.652 176 130.464 183.979 131.843 193.677C133.323 204.082 136.108 214.284 140.148 224.038C146.456 239.268 155.702 253.106 167.359 264.762C179.015 276.419 192.853 285.665 208.083 291.973C223.313 298.282 239.636 301.529 256.121 301.529C272.606 301.529 288.929 298.282 304.159 291.973C319.389 285.665 333.227 276.419 344.883 264.762C356.54 253.106 365.786 239.268 372.095 224.038C376.135 214.284 378.919 204.082 380.399 193.677C381.778 183.979 389.59 176 399.385 176Z" fill="#303030"/>
</svg>
