<svg width="512" height="512" viewBox="0 0 512 512" fill="none" xmlns="http://www.w3.org/2000/svg">
<rect width="512" height="512" fill="white"/>
<path d="M109 200.324C109 219.586 112.802 237.659 120.19 255.454C127.577 273.25 138.405 289.419 152.055 303.04L176.512 278.637C166.074 268.221 157.793 255.856 152.144 242.248C146.495 228.639 143.587 214.054 143.587 199.324L109 200.324Z" fill="#B7D9FF"/>
<path d="M152.055 303.04C165.706 316.66 181.911 327.464 199.746 334.835C217.58 342.206 236.696 346 256 346V311.489C241.238 311.489 226.62 308.588 212.981 302.951C199.343 297.314 186.951 289.052 176.512 278.637L152.055 303.04Z" fill="#4BA6FF"/>
<path d="M256 346C275.304 346 294.42 342.206 312.254 334.835C330.089 327.464 346.294 316.66 359.945 303.04L335.488 278.637C325.049 289.052 312.657 297.314 299.019 302.951C285.38 308.588 270.762 311.489 256 311.489V346Z" fill="#096DFF"/>
<path d="M359.945 303.04C373.595 289.419 384.423 273.25 391.81 255.454C399.198 237.659 403 219.586 403 200.324L368.413 199.324C368.413 214.054 365.505 228.639 359.856 242.248C354.207 255.856 345.926 268.221 335.488 278.637L359.945 303.04Z" fill="#0328DB"/>
<path d="M256.579 231.662C256.579 231.662 309.244 180.119 309.244 209.141C309.244 238.163 285.665 261.69 256.579 261.69C227.492 261.69 203.913 238.163 203.913 209.141C203.913 180.119 256.579 231.662 256.579 231.662Z" fill="#3E74FF"/>
<path d="M143.584 200.324C143.584 195.729 141.895 191.323 138.639 188.074C135.383 184.825 130.967 183 126.362 183C121.757 183 117.341 184.825 114.085 188.074C110.829 191.323 109 195.729 109 200.324L143.584 200.324Z" fill="#B7D9FF"/>
<path d="M403 200.324C403 195.729 401.171 191.323 397.915 188.074C394.659 184.825 390.242 183 385.638 183C381.033 183 376.617 184.825 373.361 188.074C370.105 191.323 368.407 195.729 368.407 200.324L403 200.324Z" fill="#0328DB"/>
</svg>
